{
	"asset":{
		"generator":"Khronos glTF Blender I/O v4.4.55",
		"version":"2.0"
	},
	"scene":0,
	"scenes":[
		{
			"name":"Scene",
			"nodes":[
				36
			]
		}
	],
	"nodes":[
		{
			"mesh":0,
			"name":"Object_4",
			"scale":[
				1.6733466386795044,
				1.7079228162765503,
				1.5294185876846313
			],
			"translation":[
				-0.27913832664489746,
				-1.0943139791488647,
				-2.5709121227264404
			]
		},
		{
			"children":[
				0
			],
			"name":"demoscene_0"
		},
		{
			"mesh":1,
			"name":"Object_25"
		},
		{
			"mesh":2,
			"name":"Object_26"
		},
		{
			"children":[
				2,
				3
			],
			"name":"demoscene_10_10"
		},
		{
			"name":"demoscene_11_11"
		},
		{
			"name":"demoscene_12_12"
		},
		{
			"name":"demoscene_13_13"
		},
		{
			"name":"demoscene_14_14"
		},
		{
			"name":"demoscene_15_15"
		},
		{
			"name":"demoscene_16_16"
		},
		{
			"name":"demoscene_17_17"
		},
		{
			"mesh":3,
			"name":"Object_44"
		},
		{
			"mesh":4,
			"name":"Object_45"
		},
		{
			"children":[
				12,
				13
			],
			"name":"demoscene_18_18"
		},
		{
			"mesh":5,
			"name":"Object_47"
		},
		{
			"mesh":6,
			"name":"Object_48"
		},
		{
			"children":[
				15,
				16
			],
			"name":"demoscene_19_19"
		},
		{
			"name":"demoscene_1_1"
		},
		{
			"mesh":7,
			"name":"Object_50"
		},
		{
			"children":[
				19
			],
			"name":"demoscene_20_20"
		},
		{
			"mesh":8,
			"name":"Object_52"
		},
		{
			"children":[
				21
			],
			"name":"demoscene_21_21"
		},
		{
			"name":"demoscene_2_2"
		},
		{
			"name":"demoscene_3_3"
		},
		{
			"name":"demoscene_4_4"
		},
		{
			"name":"demoscene_5_5"
		},
		{
			"name":"demoscene_6_6"
		},
		{
			"mesh":9,
			"name":"Object_18"
		},
		{
			"mesh":10,
			"name":"Object_19"
		},
		{
			"children":[
				28,
				29
			],
			"name":"demoscene_7_7"
		},
		{
			"name":"demoscene_8_8"
		},
		{
			"mesh":11,
			"name":"Object_23"
		},
		{
			"children":[
				32
			],
			"name":"demoscene_9_9"
		},
		{
			"children":[
				1,
				4,
				5,
				6,
				7,
				8,
				9,
				10,
				11,
				14,
				17,
				18,
				20,
				22,
				23,
				24,
				25,
				26,
				27,
				30,
				31,
				33
			],
			"name":"GLTF_SceneRootNode",
			"rotation":[
				0.70710688829422,
				0,
				0,
				0.7071066498756409
			]
		},
		{
			"children":[
				34
			],
			"name":"root"
		},
		{
			"children":[
				35
			],
			"name":"Sketchfab_model",
			"rotation":[
				-0.70710688829422,
				0,
				0,
				0.7071066498756409
			]
		}
	],
	"materials":[
		{
			"doubleSided":true,
			"name":"normal",
			"pbrMetallicRoughness":{
				"baseColorTexture":{
					"index":0
				},
				"metallicFactor":0,
				"roughnessFactor":0.5
			}
		},
		{
			"doubleSided":true,
			"emissiveFactor":[
				1,
				1,
				1
			],
			"name":"emissionwhite",
			"pbrMetallicRoughness":{
				"baseColorFactor":[
					0,
					0,
					0,
					1
				]
			}
		},
		{
			"doubleSided":true,
			"name":"metalic_mat",
			"pbrMetallicRoughness":{
				"baseColorTexture":{
					"index":1
				},
				"roughnessFactor":0.20000000298023224
			}
		}
	],
	"meshes":[
		{
			"name":"Object_0",
			"primitives":[
				{
					"attributes":{
						"POSITION":0,
						"NORMAL":1,
						"TEXCOORD_0":2
					},
					"indices":3,
					"material":0
				}
			]
		},
		{
			"name":"Object_11",
			"primitives":[
				{
					"attributes":{
						"POSITION":4,
						"NORMAL":5,
						"TEXCOORD_0":6
					},
					"indices":7,
					"material":0
				}
			]
		},
		{
			"name":"Object_12",
			"primitives":[
				{
					"attributes":{
						"POSITION":8,
						"NORMAL":9,
						"TEXCOORD_0":10
					},
					"indices":11,
					"material":1
				}
			]
		},
		{
			"name":"Object_22",
			"primitives":[
				{
					"attributes":{
						"POSITION":12,
						"NORMAL":13,
						"TEXCOORD_0":14
					},
					"indices":15,
					"material":2
				}
			]
		},
		{
			"name":"Object_23",
			"primitives":[
				{
					"attributes":{
						"POSITION":16,
						"NORMAL":17,
						"TEXCOORD_0":18
					},
					"indices":19,
					"material":0
				}
			]
		},
		{
			"name":"Object_24",
			"primitives":[
				{
					"attributes":{
						"POSITION":20,
						"NORMAL":21,
						"TEXCOORD_0":22
					},
					"indices":23,
					"material":0
				}
			]
		},
		{
			"name":"Object_25",
			"primitives":[
				{
					"attributes":{
						"POSITION":24,
						"NORMAL":25,
						"TEXCOORD_0":26
					},
					"indices":27,
					"material":2
				}
			]
		},
		{
			"name":"Object_26",
			"primitives":[
				{
					"attributes":{
						"POSITION":28,
						"NORMAL":29,
						"TEXCOORD_0":30
					},
					"indices":31,
					"material":0
				}
			]
		},
		{
			"name":"Object_27",
			"primitives":[
				{
					"attributes":{
						"POSITION":32,
						"NORMAL":33,
						"TEXCOORD_0":34
					},
					"indices":35,
					"material":0
				}
			]
		},
		{
			"name":"Object_7",
			"primitives":[
				{
					"attributes":{
						"POSITION":36,
						"NORMAL":37,
						"TEXCOORD_0":38
					},
					"indices":39,
					"material":0
				}
			]
		},
		{
			"name":"Object_8",
			"primitives":[
				{
					"attributes":{
						"POSITION":40,
						"NORMAL":41,
						"TEXCOORD_0":42
					},
					"indices":43,
					"material":2
				}
			]
		},
		{
			"name":"Object_10",
			"primitives":[
				{
					"attributes":{
						"POSITION":44,
						"NORMAL":45,
						"TEXCOORD_0":46
					},
					"indices":47,
					"material":0
				}
			]
		}
	],
	"textures":[
		{
			"sampler":0,
			"source":0
		},
		{
			"sampler":0,
			"source":0
		}
	],
	"images":[
		{
			"mimeType":"image/png",
			"name":"normal_baseColor",
			"uri":"normal_baseColor.png"
		}
	],
	"accessors":[
		{
			"bufferView":0,
			"componentType":5126,
			"count":216,
			"max":[
				2.4324216842651367,
				2.3120276927948,
				4.865389823913574
			],
			"min":[
				-2.113955497741699,
				0.984530508518219,
				4.589561462402344
			],
			"type":"VEC3"
		},
		{
			"bufferView":1,
			"componentType":5126,
			"count":216,
			"type":"VEC3"
		},
		{
			"bufferView":2,
			"componentType":5126,
			"count":216,
			"type":"VEC2"
		},
		{
			"bufferView":3,
			"componentType":5123,
			"count":528,
			"type":"SCALAR"
		},
		{
			"bufferView":4,
			"componentType":5126,
			"count":10034,
			"max":[
				2.527238607406616,
				3.238719940185547,
				2.915764093399048
			],
			"min":[
				-2.5696353912353516,
				2.9041149616241455,
				-2.5868282318115234
			],
			"type":"VEC3"
		},
		{
			"bufferView":5,
			"componentType":5126,
			"count":10034,
			"type":"VEC3"
		},
		{
			"bufferView":6,
			"componentType":5126,
			"count":10034,
			"type":"VEC2"
		},
		{
			"bufferView":7,
			"componentType":5123,
			"count":34632,
			"type":"SCALAR"
		},
		{
			"bufferView":8,
			"componentType":5126,
			"count":1946,
			"max":[
				2.4448060989379883,
				2.9993410110473633,
				2.855372667312622
			],
			"min":[
				-2.48720645904541,
				2.9186880588531494,
				-2.5264368057250977
			],
			"type":"VEC3"
		},
		{
			"bufferView":9,
			"componentType":5126,
			"count":1946,
			"type":"VEC3"
		},
		{
			"bufferView":10,
			"componentType":5126,
			"count":1946,
			"type":"VEC2"
		},
		{
			"bufferView":11,
			"componentType":5123,
			"count":4464,
			"type":"SCALAR"
		},
		{
			"bufferView":12,
			"componentType":5126,
			"count":154,
			"max":[
				4.343226909637451,
				3.151047945022583,
				-1.2162914276123047
			],
			"min":[
				4.252285957336426,
				3.0601069927215576,
				-4.634714126586914
			],
			"type":"VEC3"
		},
		{
			"bufferView":13,
			"componentType":5126,
			"count":154,
			"type":"VEC3"
		},
		{
			"bufferView":14,
			"componentType":5126,
			"count":154,
			"type":"VEC2"
		},
		{
			"bufferView":15,
			"componentType":5123,
			"count":372,
			"type":"SCALAR"
		},
		{
			"bufferView":16,
			"componentType":5126,
			"count":58,
			"max":[
				4.297756195068359,
				3.112297296524048,
				-1.4688606262207031
			],
			"min":[
				4.169893264770508,
				0.3642730712890625,
				-4.453950881958008
			],
			"type":"VEC3"
		},
		{
			"bufferView":17,
			"componentType":5126,
			"count":58,
			"type":"VEC3"
		},
		{
			"bufferView":18,
			"componentType":5126,
			"count":58,
			"type":"VEC2"
		},
		{
			"bufferView":19,
			"componentType":5123,
			"count":168,
			"type":"SCALAR"
		},
		{
			"bufferView":20,
			"componentType":5126,
			"count":76,
			"max":[
				4.297756195068359,
				3.1122970581054688,
				1.4581363201141357
			],
			"min":[
				4.169893741607666,
				0.3642730712890625,
				0.6699764728546143
			],
			"type":"VEC3"
		},
		{
			"bufferView":21,
			"componentType":5126,
			"count":76,
			"type":"VEC3"
		},
		{
			"bufferView":22,
			"componentType":5126,
			"count":76,
			"type":"VEC2"
		},
		{
			"bufferView":23,
			"componentType":5123,
			"count":168,
			"type":"SCALAR"
		},
		{
			"bufferView":24,
			"componentType":5126,
			"count":152,
			"max":[
				4.343226909637451,
				3.151048183441162,
				3.635896682739258
			],
			"min":[
				4.252285957336426,
				3.0601067543029785,
				0.21747398376464844
			],
			"type":"VEC3"
		},
		{
			"bufferView":25,
			"componentType":5126,
			"count":152,
			"type":"VEC3"
		},
		{
			"bufferView":26,
			"componentType":5126,
			"count":152,
			"type":"VEC2"
		},
		{
			"bufferView":27,
			"componentType":5123,
			"count":372,
			"type":"SCALAR"
		},
		{
			"bufferView":28,
			"componentType":5126,
			"count":1084,
			"max":[
				2.8643710613250732,
				0.8833730220794678,
				1.5765947103500366
			],
			"min":[
				-2.6133227348327637,
				0.8329325318336487,
				-3.114663600921631
			],
			"type":"VEC3"
		},
		{
			"bufferView":29,
			"componentType":5126,
			"count":1084,
			"type":"VEC3"
		},
		{
			"bufferView":30,
			"componentType":5126,
			"count":1084,
			"type":"VEC2"
		},
		{
			"bufferView":31,
			"componentType":5123,
			"count":3240,
			"type":"SCALAR"
		},
		{
			"bufferView":32,
			"componentType":5126,
			"count":457,
			"max":[
				4.763720512390137,
				3.238719940185547,
				5.165390491485596
			],
			"min":[
				-4.01978874206543,
				-0.30000001192092896,
				-4.865389823913574
			],
			"type":"VEC3"
		},
		{
			"bufferView":33,
			"componentType":5126,
			"count":457,
			"type":"VEC3"
		},
		{
			"bufferView":34,
			"componentType":5126,
			"count":457,
			"type":"VEC2"
		},
		{
			"bufferView":35,
			"componentType":5123,
			"count":888,
			"type":"SCALAR"
		},
		{
			"bufferView":36,
			"componentType":5126,
			"count":20708,
			"max":[
				3.4970602989196777,
				1.0753356218338013,
				1.9034068584442139
			],
			"min":[
				-3.458486557006836,
				-0.04034382104873657,
				-3.5511269569396973
			],
			"type":"VEC3"
		},
		{
			"bufferView":37,
			"componentType":5126,
			"count":20708,
			"type":"VEC3"
		},
		{
			"bufferView":38,
			"componentType":5126,
			"count":20708,
			"type":"VEC2"
		},
		{
			"bufferView":39,
			"componentType":5123,
			"count":68928,
			"type":"SCALAR"
		},
		{
			"bufferView":40,
			"componentType":5126,
			"count":19175,
			"max":[
				3.4787111282348633,
				1.0725226402282715,
				1.8391287326812744
			],
			"min":[
				-3.4401378631591797,
				0.0074079036712646484,
				-3.5437512397766113
			],
			"type":"VEC3"
		},
		{
			"bufferView":41,
			"componentType":5126,
			"count":19175,
			"type":"VEC3"
		},
		{
			"bufferView":42,
			"componentType":5126,
			"count":19175,
			"type":"VEC2"
		},
		{
			"bufferView":43,
			"componentType":5123,
			"count":55104,
			"type":"SCALAR"
		},
		{
			"bufferView":44,
			"componentType":5126,
			"count":2118,
			"max":[
				4.115501880645752,
				1.831737995147705,
				-4.470828056335449
			],
			"min":[
				-0.6750032305717468,
				1.1920928955078125e-07,
				-4.865389823913574
			],
			"type":"VEC3"
		},
		{
			"bufferView":45,
			"componentType":5126,
			"count":2118,
			"type":"VEC3"
		},
		{
			"bufferView":46,
			"componentType":5126,
			"count":2118,
			"type":"VEC2"
		},
		{
			"bufferView":47,
			"componentType":5123,
			"count":4212,
			"type":"SCALAR"
		}
	],
	"bufferViews":[
		{
			"buffer":0,
			"byteLength":2592,
			"byteOffset":0,
			"target":34962
		},
		{
			"buffer":0,
			"byteLength":2592,
			"byteOffset":2592,
			"target":34962
		},
		{
			"buffer":0,
			"byteLength":1728,
			"byteOffset":5184,
			"target":34962
		},
		{
			"buffer":0,
			"byteLength":1056,
			"byteOffset":6912,
			"target":34963
		},
		{
			"buffer":0,
			"byteLength":120408,
			"byteOffset":7968,
			"target":34962
		},
		{
			"buffer":0,
			"byteLength":120408,
			"byteOffset":128376,
			"target":34962
		},
		{
			"buffer":0,
			"byteLength":80272,
			"byteOffset":248784,
			"target":34962
		},
		{
			"buffer":0,
			"byteLength":69264,
			"byteOffset":329056,
			"target":34963
		},
		{
			"buffer":0,
			"byteLength":23352,
			"byteOffset":398320,
			"target":34962
		},
		{
			"buffer":0,
			"byteLength":23352,
			"byteOffset":421672,
			"target":34962
		},
		{
			"buffer":0,
			"byteLength":15568,
			"byteOffset":445024,
			"target":34962
		},
		{
			"buffer":0,
			"byteLength":8928,
			"byteOffset":460592,
			"target":34963
		},
		{
			"buffer":0,
			"byteLength":1848,
			"byteOffset":469520,
			"target":34962
		},
		{
			"buffer":0,
			"byteLength":1848,
			"byteOffset":471368,
			"target":34962
		},
		{
			"buffer":0,
			"byteLength":1232,
			"byteOffset":473216,
			"target":34962
		},
		{
			"buffer":0,
			"byteLength":744,
			"byteOffset":474448,
			"target":34963
		},
		{
			"buffer":0,
			"byteLength":696,
			"byteOffset":475192,
			"target":34962
		},
		{
			"buffer":0,
			"byteLength":696,
			"byteOffset":475888,
			"target":34962
		},
		{
			"buffer":0,
			"byteLength":464,
			"byteOffset":476584,
			"target":34962
		},
		{
			"buffer":0,
			"byteLength":336,
			"byteOffset":477048,
			"target":34963
		},
		{
			"buffer":0,
			"byteLength":912,
			"byteOffset":477384,
			"target":34962
		},
		{
			"buffer":0,
			"byteLength":912,
			"byteOffset":478296,
			"target":34962
		},
		{
			"buffer":0,
			"byteLength":608,
			"byteOffset":479208,
			"target":34962
		},
		{
			"buffer":0,
			"byteLength":336,
			"byteOffset":479816,
			"target":34963
		},
		{
			"buffer":0,
			"byteLength":1824,
			"byteOffset":480152,
			"target":34962
		},
		{
			"buffer":0,
			"byteLength":1824,
			"byteOffset":481976,
			"target":34962
		},
		{
			"buffer":0,
			"byteLength":1216,
			"byteOffset":483800,
			"target":34962
		},
		{
			"buffer":0,
			"byteLength":744,
			"byteOffset":485016,
			"target":34963
		},
		{
			"buffer":0,
			"byteLength":13008,
			"byteOffset":485760,
			"target":34962
		},
		{
			"buffer":0,
			"byteLength":13008,
			"byteOffset":498768,
			"target":34962
		},
		{
			"buffer":0,
			"byteLength":8672,
			"byteOffset":511776,
			"target":34962
		},
		{
			"buffer":0,
			"byteLength":6480,
			"byteOffset":520448,
			"target":34963
		},
		{
			"buffer":0,
			"byteLength":5484,
			"byteOffset":526928,
			"target":34962
		},
		{
			"buffer":0,
			"byteLength":5484,
			"byteOffset":532412,
			"target":34962
		},
		{
			"buffer":0,
			"byteLength":3656,
			"byteOffset":537896,
			"target":34962
		},
		{
			"buffer":0,
			"byteLength":1776,
			"byteOffset":541552,
			"target":34963
		},
		{
			"buffer":0,
			"byteLength":248496,
			"byteOffset":543328,
			"target":34962
		},
		{
			"buffer":0,
			"byteLength":248496,
			"byteOffset":791824,
			"target":34962
		},
		{
			"buffer":0,
			"byteLength":165664,
			"byteOffset":1040320,
			"target":34962
		},
		{
			"buffer":0,
			"byteLength":137856,
			"byteOffset":1205984,
			"target":34963
		},
		{
			"buffer":0,
			"byteLength":230100,
			"byteOffset":1343840,
			"target":34962
		},
		{
			"buffer":0,
			"byteLength":230100,
			"byteOffset":1573940,
			"target":34962
		},
		{
			"buffer":0,
			"byteLength":153400,
			"byteOffset":1804040,
			"target":34962
		},
		{
			"buffer":0,
			"byteLength":110208,
			"byteOffset":1957440,
			"target":34963
		},
		{
			"buffer":0,
			"byteLength":25416,
			"byteOffset":2067648,
			"target":34962
		},
		{
			"buffer":0,
			"byteLength":25416,
			"byteOffset":2093064,
			"target":34962
		},
		{
			"buffer":0,
			"byteLength":16944,
			"byteOffset":2118480,
			"target":34962
		},
		{
			"buffer":0,
			"byteLength":8424,
			"byteOffset":2135424,
			"target":34963
		}
	],
	"samplers":[
		{
			"magFilter":9729,
			"minFilter":9987
		}
	],
	"buffers":[
		{
			"byteLength":2143848,
			"uri":"classroom.bin"
		}
	]
}
